<svg height="512" viewBox="0 0 512 512" width="512" xmlns="http://www.w3.org/2000/svg"><g id="Flat"><path d="m176 72v104.00008a79.99991 79.99991 0 0 0 79.99992 79.99992h.00016a79.99991 79.99991 0 0 0 79.99992-79.99992v-104.00008z" fill="#f4ceaf"/><path d="m172 120h4a0 0 0 0 1 0 0v56a0 0 0 0 1 0 0h-4a28 28 0 0 1 -28-28 28 28 0 0 1 28-28z" fill="#f2c194"/><path d="m364 120h4a0 0 0 0 1 0 0v56a0 0 0 0 1 0 0h-4a28 28 0 0 1 -28-28 28 28 0 0 1 28-28z" fill="#f2c194" transform="matrix(-1 0 0 -1 704 296)"/><path d="m224 144h-16a8 8 0 0 1 0-16h16a8 8 0 0 1 0 16z" fill="#ad7d4d"/><path d="m304 144h-16a8 8 0 0 1 0-16h16a8 8 0 0 1 0 16z" fill="#ad7d4d"/><path d="m248.00586 184.002a8.0064 8.0064 0 0 1 -7.7666-9.94238l8-32a7.99965 7.99965 0 1 1 15.52148 3.88086l-8 32a8.00241 8.00241 0 0 1 -7.75488 6.06152z" fill="#f2c194"/><circle cx="216" cy="160" fill="#966342" r="8"/><circle cx="296" cy="160" fill="#966342" r="8"/><path d="m464 496h-416a175.83912 175.83912 0 0 1 6.42-47.12012l9.03-32.5a176.07291 176.07291 0 0 1 111.05-118.91015l32.31-11.39991 1.18-.41992a24.00183 24.00183 0 0 0 16.01-22.6299v-15.02h64v15.02a24.00175 24.00175 0 0 0 16.01 22.62988l1.17993.41992 32.31007 11.39993a176.07338 176.07338 0 0 1 111.05005 118.91015l9.03 32.5a176.08928 176.08928 0 0 1 6.41995 47.12012z" fill="#4ba477"/><path d="m305.18994 286.06982a79.21815 79.21815 0 0 1 -98.37994 0l1.18-.41992a24.00183 24.00183 0 0 0 16.01-22.6299v-15.02h64v15.02a24.00175 24.00175 0 0 0 16.01 22.62988z" fill="#f4ceaf"/><path d="m376 496h-16v-86.70215a163.59825 163.59825 0 0 1 8.41064-51.82812l15.17872 5.06054a147.61728 147.61728 0 0 0 -7.58936 46.76758z" fill="#349966"/><path d="m152 496h-16v-86.70215a147.61728 147.61728 0 0 0 -7.58936-46.76758l15.17872-5.06054a163.59825 163.59825 0 0 1 8.41064 51.82812z" fill="#349966"/><path d="m334.48 191.54a80.00465 80.00465 0 0 1 -156.96 0l78.48-23.54z" fill="#4ba477"/><g fill="#349966"><path d="m207.999 216.002a8.00139 8.00139 0 0 1 -2.52881-15.59179l24-8a8.00034 8.00034 0 0 1 5.05958 15.17968l-24 8a8.00247 8.00247 0 0 1 -2.53077.41211z"/><path d="m232 240a8 8 0 0 1 -5.65674-13.65723l8-8a8.00018 8.00018 0 1 1 11.31348 11.31446l-8 8a7.97661 7.97661 0 0 1 -5.65674 2.34277z"/><path d="m304.001 216.002a8.0047 8.0047 0 0 1 -2.53077-.41211l-24-8a8.00034 8.00034 0 0 1 5.05958-15.17968l24 8a8.00139 8.00139 0 0 1 -2.52881 15.59179z"/><path d="m280 240a7.97661 7.97661 0 0 1 -5.65674-2.34277l-8-8a8.00018 8.00018 0 0 1 11.31348-11.31446l8 8a8 8 0 0 1 -5.65674 13.65723z"/></g><path d="m358.88 95.91992-2.48 8.7002a21.2424 21.2424 0 0 1 -20.4 15.37988 149.315 149.315 0 0 0 -17.21-7.31006 151.36186 151.36186 0 0 0 -50.57-8.68994h-24.44a151.79527 151.79527 0 0 0 -50.57 8.68994 149.30249 149.30249 0 0 0 -17.21 7.31006 21.22848 21.22848 0 0 1 -20.4-15.37988l-2.48-8.7002a56.42087 56.42087 0 0 1 54.25-71.91992h97.26a56.42087 56.42087 0 0 1 54.25 71.91992z" fill="#4ba477"/><path d="m208.96 108.06006a151.12023 151.12023 0 0 0 -15.75 4.62988l-16.18-28.77a7.99664 7.99664 0 1 1 13.94-7.83986z" fill="#349966"/><path d="m244.64 104h-.86a152.32211 152.32211 0 0 0 -15.27.77l-4.37-23.3a7.99627 7.99627 0 0 1 15.72-2.94z" fill="#349966"/><path d="m287.86 81.47-4.37 23.3a152.32211 152.32211 0 0 0 -15.27-.77h-.86l4.78-25.47a7.99627 7.99627 0 0 1 15.72 2.94z" fill="#349966"/><path d="m334.97 83.91992-16.17993 28.77a151.12882 151.12882 0 0 0 -15.75-4.62988l17.99-31.98a7.99664 7.99664 0 0 1 13.93993 7.83988z" fill="#349966"/></g></svg>