<svg id="Layer_1_1_" enable-background="new 0 0 64 64" height="512" viewBox="0 0 64 64" width="512" xmlns="http://www.w3.org/2000/svg"><path d="m19 3s-14 6-16 18c-.778 4.665 4.367 17.899 5 25 .996 11.165-2 16-2 16h24l-.906-35.314c13.474-6.986 19.283-23.686 19.283-23.686z" fill="#634627"/><path d="m12 46c-.633-7.101-5.778-20.335-5-25 2-12 16-18 16-18h-4s-14 6-16 18c-.778 4.665 4.367 17.899 5 25 .996 11.165-2 16-2 16h4s2.996-4.835 2-16z" fill="#73512d"/><path d="m59.974 33.574c-.091-.806-.472-1.553-1.018-2.153-2.394-2.628-7.47-6.477-5.694-10.445.387-.865 1.034-1.596 1.399-2.471 1.301-3.117-1.776-7.7-3.22-10.374-.945-1.751-1.958-3.475-3.064-5.131 0 0-8 23-27 26.307v-.307s-1-4-4.001-4c-1.642 0-3.077 1.422-3.605 2.9-.124.347-.207.708-.247 1.075-.214 1.979.75 6.217 2.57 8.144.65.833 4.75 6.426 2.906 12.881-2 7-6 12-6 12h20.377l1.796-6.947c3.799 1.772 7.94 3.074 11.244 3.896 2.396.596 5.572 1.208 7.566-.693 1.366-1.302 1.758-3.536 1.06-5.255-.001-.003-.647-1.594-.647-1.594-.089-.909.139-1.822.645-2.582l.799-1.198c.236-.354.222-.845-.09-1.134-.3-.279-.379-.72-.197-1.083l.408-.816c.177-.353.107-.78-.172-1.06l-.263-.263c-.172-.172-.269-.406-.269-.649l1.119-3.551c0-.638.408-1.204 1.014-1.406 1.667-.559 2.796-2.21 2.584-4.091z" fill="#fbc997"/><path d="m23 45s6 10 7 12c.587 1.174.497 3.377.322 5h3.055l1.796-6.947c-8-3-12.173-10.053-12.173-10.053z" fill="#fbc188"/><path d="m55.962 44.592c.177-.353.107-.78-.172-1.06l-.263-.263c-.075-.075-.129-.165-.173-.259l-4.977 1.99 5 3.321.463-.695c.236-.354.222-.845-.09-1.134-.3-.279-.379-.72-.197-1.083z" fill="#fb8e58"/><path d="m51.67 35.293 1.414 1.414c.528-.528 1.347-1.029 1.586-1l1.414-1.414c-1.259-1.261-3.165-.25-4.414 1z" fill="#fbc188"/><path d="m40.482 49.597c-2.352-.917-4.783-1.865-6.574-3.527-1.392-1.291-2.278-3.194-2.925-5.148l1.946.973.895-1.789-4-2c-.495-.246-1.095-.046-1.342.447l-2 4 1.789.895.869-1.737c.731 2.161 1.754 4.291 3.408 5.826 2.07 1.921 4.682 2.939 7.208 3.924.486.189.97.378 1.445.571 2.553 1.04 5.197 2.021 7.856 2.916l.639-1.895c-2.621-.883-5.226-1.85-7.741-2.873-.484-.198-.977-.39-1.473-.583z" fill="#47648f"/><g fill="#73512d"><path d="m30.987 18.979.002.004c.296.474.935.622 1.39.299 6.044-4.293 6.673-10.733 6.665-13.295-.002-.591-.513-1.045-1.1-.98l-.025.003c-.499.055-.879.471-.88.973-.004 2.169-.549 7.902-5.809 11.662-.423.302-.519.893-.243 1.334z"/><path d="m30.974 5.687-.02-.002c-.518-.047-.982.312-1.062.825-.336 2.151-1.26 4.644-3.59 6.165-.416.271-.557.815-.335 1.258l.008.015c.266.532.941.716 1.437.388 2.375-1.567 3.923-4.169 4.451-7.489.092-.571-.311-1.108-.889-1.16z"/><path d="m18.998 15.991.005.019c.133.53.67.853 1.2.72l2.079-.52c.531-.133.853-.67.72-1.201l-.005-.019c-.133-.53-.67-.853-1.2-.72l-2.079.52c-.531.133-.853.67-.72 1.201z"/></g></svg>