<?xml version="1.0" encoding="iso-8859-1"?>
<!-- Generator: Adobe Illustrator 19.0.0, SVG Export Plug-In . SVG Version: 6.00 Build 0)  -->
<svg version="1.1" id="Capa_1" xmlns="http://www.w3.org/2000/svg" xmlns:xlink="http://www.w3.org/1999/xlink" x="0px" y="0px"
	 viewBox="0 0 464 464" style="enable-background:new 0 0 464 464;" xml:space="preserve">
<path style="fill:#FDC9A6;" d="M262.036,0h-32c-97.202,0-176,78.798-176,176l8,64L28.62,290.128
	c-4.913,7.345-2.943,17.282,4.402,22.195c2.137,1.429,4.587,2.323,7.142,2.605L86.036,320l4.8,62.176
	c1.694,22.026,20.922,38.509,42.949,36.816c0.634-0.049,1.268-0.113,1.899-0.192l30.4-2.8v48h208v-42.232
	c0-24.839,5.784-49.337,16.896-71.552l38.664-77.328c5.552-11.104,8.44-40.888,8.44-35.776V176c0-97.202-78.798-176-176-176
	C262.068,0,262.052,0,262.036,0L262.036,0z"/>
<path style="fill:#DC4D41;" d="M166.036,184h140l0,0v48l0,0h-108c-17.673,0-32-14.327-32-32V184L166.036,184z"/>
<path style="fill:#C7463B;" d="M230.036,232l50.984,71.376c5.139,7.189,15.133,8.85,22.321,3.711
	c4.201-3.004,6.695-7.85,6.695-13.015V232L230.036,232z"/>
<path style="fill:#DC4D41;" d="M326.036,256h-24c-13.255,0-24-10.745-24-24v-48h112v8C390.036,227.346,361.382,256,326.036,256z"/>
<path style="fill:#EA6B65;" d="M198.036,64h96c53.019,0,96,42.981,96,96v32l0,0h-272c-8.837,0-16-7.163-16-16v-16
	C102.036,106.981,145.016,64,198.036,64z"/>
<g>
	<path style="fill:#DC4D41;" d="M142.036,152v8c0,4.418,3.582,8,8,8s8-3.582,8-8v-8c-0.026-22.08-17.92-39.974-40-40
		c-1.282,0.025-2.537,0.366-3.656,0.992c-1.496,2.656-2.856,5.392-4.104,8.2c0.543,3.878,3.844,6.774,7.76,6.808
		C131.29,128,142.036,138.745,142.036,152L142.036,152z"/>
	<path style="fill:#DC4D41;" d="M198.036,176c-4.418,0-8-3.582-8-8c0-17.673,14.327-32,32-32c4.418,0,8,3.582,8,8s-3.582,8-8,8
		c-8.837,0-16,7.163-16,16C206.036,172.418,202.454,176,198.036,176z"/>
	<path style="fill:#DC4D41;" d="M214.036,80c0,4.418-3.582,8-8,8h-8c-4.418,0-8,3.582-8,8s3.582,8,8,8h8
		c4.81,0.004,9.509-1.446,13.48-4.16c7.063,12.42,20.232,20.11,34.52,20.16h8c4.418,0,8-3.582,8-8s-3.582-8-8-8h-8
		c-13.255,0-24-10.745-24-24V64h-16V80z"/>
	<path style="fill:#DC4D41;" d="M214.036,152h-8c-17.673,0-32-14.327-32-32c0-4.418,3.582-8,8-8s8,3.582,8,8c0,8.837,7.163,16,16,16
		h8c4.418,0,8,3.582,8,8S218.454,152,214.036,152z"/>
	<path style="fill:#DC4D41;" d="M277.74,168.912c-7.393,0.221-14.648-2.031-20.616-6.4c-7.721-6.557-11.842-16.41-11.088-26.512
		c0-4.418,3.582-8,8-8c4.418,0,8,3.582,8,8c-0.586,5.152,1.235,10.287,4.936,13.92c5.221,2.872,11.323,3.699,17.12,2.32
		c4.293-1.043,8.619,1.592,9.663,5.885c1.033,4.25-1.539,8.542-5.775,9.635C284.622,168.536,281.186,168.923,277.74,168.912
		L277.74,168.912z"/>
	<path style="fill:#DC4D41;" d="M334.036,152c-4.418,0-8,3.582-8,8s3.582,8,8,8c8.837,0,16,7.163,16,16v8l0.216,3.336h15.784V184
		C366.036,166.327,351.709,152,334.036,152z"/>
	<path style="fill:#DC4D41;" d="M318.036,144c-4.418,0-8-3.582-8-8v-8c0-8.837-7.163-16-16-16c-4.418,0-8-3.582-8-8
		c0-4.418,3.582-8,8-8c17.673,0,32,14.327,32,32v8C326.036,140.418,322.454,144,318.036,144z"/>
	<path style="fill:#DC4D41;" d="M334.036,144c4.418,0,8-3.582,8-8s-3.582-8-8-8c-35.33,0.04-63.96,28.67-64,64v2.336h16V192
		C286.066,165.503,307.539,144.031,334.036,144z"/>
</g>
<g>
</g>
<g>
</g>
<g>
</g>
<g>
</g>
<g>
</g>
<g>
</g>
<g>
</g>
<g>
</g>
<g>
</g>
<g>
</g>
<g>
</g>
<g>
</g>
<g>
</g>
<g>
</g>
<g>
</g>
</svg>
