<svg height="512" viewBox="0 0 512 512" width="512" xmlns="http://www.w3.org/2000/svg"><g id="Flat"><path d="m304 208-8 56a77.74168 77.74168 0 0 0 -80 0l-8-56a119.99748 119.99748 0 0 0 24-72v-15.47a118.93944 118.93944 0 0 0 -1.21-16.97l-5.58-39.12012a118.93944 118.93944 0 0 1 -1.21-16.96988v-31.47h64v32a117.36471 117.36471 0 0 1 -1.15 16c-.0199.1499-.03992.29-.05994.43994l-3.36013 23.56006-2.22 15.56006c-.02.1499-.04.29-.05994.43994a118.75161 118.75161 0 0 0 -1.14999 16.53v15.47c0 2.67993.09009 5.33984.27 8a120.50988 120.50988 0 0 0 5.88989 29.95c.04.13013.09009.26.13013.38989a118.946 118.946 0 0 0 7.51 17.51026 117.5421 117.5421 0 0 0 8.37991 13.64985c.59007.83984 1.20007 1.66992 1.82007 2.5z" fill="#e44b4d"/><g fill="#d14547"><path d="m302.17993 205.5-25.74 17.15991a8.00432 8.00432 0 0 1 -8.87988-13.32007l26.24-17.48974a117.5421 117.5421 0 0 0 8.37988 13.6499z"/><path d="m286.29 174.33984-27.76 9.25a8.00054 8.00054 0 1 1 -5.06-15.17993l28.73-9.57007a117.372 117.372 0 0 0 3.96 15.11011c.04.13013.09.26005.13.38989z"/><path d="m280.27 144h-24.27a8 8 0 0 1 0-16h24v8c0 2.67993.09009 5.33984.27 8z"/><path d="m283.42993 88-2.22 15.56006c-.02.1499-.04.29-.05994.43994h-25.14999a8 8 0 0 1 0-16z"/><path d="m288 48a117.36471 117.36471 0 0 1 -1.15 16h-30.85a8 8 0 0 1 0-16z"/><path d="m288 16v16h-32a8 8 0 0 1 0-16z"/></g><path d="m226.63 369.08008q-.45 2.09985-.96 4.16992a151.47673 151.47673 0 0 1 -102.63 108.89014l-1.47.4497a122.09684 122.09684 0 0 1 -35.96 5.41016 61.60337 61.60337 0 0 1 -61.61-61.60986v-23.37014a330.93423 330.93423 0 0 1 15.37-99.68018l.71-2.25 3.23-10.25976 2.01-6.36006q3.93-12.42 8.79-24.44995a331.09174 331.09174 0 0 1 83.19-119.87991 43.49429 43.49429 0 0 1 72.55 26.66992l17.26 138.09985 1.71 13.64014q.69 5.54992.98 11.11987a152.16035 152.16035 0 0 1 -3.17 39.41016z" fill="#e7999b"/><path d="m488 403.02v23.37012a61.6066 61.6066 0 0 1 -61.61 61.60988 122.01 122.01 0 0 1 -31.42-4.10986c-1.52-.40015-3.03-.84009-4.54-1.3003l-1.47-.4497a151.49544 151.49544 0 0 1 -103.59-113.06006 153.18376 153.18376 0 0 1 -2.72-17.92017 151.34736 151.34736 0 0 1 .52991-32.60986l4.82009-38.55005 5.92993-47.41016 8.22007-65.77978a43.4971 43.4971 0 0 1 72.55-26.66992 331.0925 331.0925 0 0 1 91.98 144.32983l3.49 11.08008 2.46008 7.78979q3.75 11.86524 6.59 23.97022c.01.01.01.01.01.02a331.11455 331.11455 0 0 1 8.76992 75.68994z" fill="#e7999b"/><path d="m229.8 329.66992a64.29623 64.29623 0 0 1 -67.94 25.04l-71.99-18a64.28912 64.28912 0 0 1 -46.56-45.87988l2.01-6.36004q3.93-12.42 8.79-24.44995l3.71 22.25a48.28983 48.28983 0 0 0 35.93 38.91992l71.99 18a48.30827 48.30827 0 0 0 51.9-20.06982l9.47-14.21021 1.71 13.64014q.69 5.54992.98 11.11984z" fill="#e06b73"/><path d="m448 453.53a15.09755 15.09755 0 0 1 -9.81006 14.1499l-43.22 16.21021c-1.52-.40015-3.03-.84009-4.54-1.3003l-1.47-.4497a151.49544 151.49544 0 0 1 -103.58994-113.06003 153.18376 153.18376 0 0 1 -2.72-17.92017 122.10115 122.10115 0 0 0 58.6 63.47l15.26 7.63009a122.48107 122.48107 0 0 0 41.14 12.1499l36.91 4.1001a15.11223 15.11223 0 0 1 13.44 15.02z" fill="#e98690"/><path d="m103.16 436.41992-14.32 7.16016-7.76-15.53a141.358 141.358 0 0 0 -19.14-28.83008 157.38522 157.38522 0 0 1 -31.87-59.29 330.63334 330.63334 0 0 1 9.3-36.59009l.71-2.25a141.64383 141.64383 0 0 0 34.01 87.72022 157.74 157.74 0 0 1 21.3 32.08008z" fill="#e06b73"/><path d="m479.23 327.33008a266.65449 266.65449 0 0 1 -45.90993 90.39992 75.81442 75.81442 0 0 1 -44.98 27.80005 30.047 30.047 0 0 1 -5.96009.59009 30.38654 30.38654 0 0 1 -30.37998-30.38014v-20.58009a73.15218 73.15218 0 0 0 -27.44995-57.11991 73.48074 73.48074 0 0 1 -19.74-24.41016l-16.81005-33.62984 14.15-113.18994a43.4971 43.4971 0 0 1 72.55-26.66992 331.0925 331.0925 0 0 1 91.98 144.32983l5.95 18.86987q3.75 11.88026 6.6 23.99024z" fill="#e7999b"/><path d="m479.22 327.31006a268.34213 268.34213 0 0 1 -45.89993 90.41994 75.80522 75.80522 0 0 1 -44.98 27.80005 30.809 30.809 0 0 1 -6.02.59985 30.39907 30.39907 0 0 1 -30.32007-30.3899v-20.58009a72.80252 72.80252 0 0 0 -27.44995-57.11991 73.8288 73.8288 0 0 1 -19.74-24.41016l-16.81005-33.62984 5.92993-47.41016 9.27 42.03028 15.93007 31.84988a57.48306 57.48306 0 0 0 15.41 19.07 88.73513 88.73513 0 0 1 33.46 69.61991v20.58009a14.36791 14.36791 0 0 0 17.2 14.09985 59.81643 59.81643 0 0 0 35.49-21.92993 252.16494 252.16494 0 0 0 47.98-104.82983l1.5-7.53 2.46008 7.78979q3.74992 11.8652 6.58992 23.97018z" fill="#e06b73"/><path d="m225.67 373.25a151.47673 151.47673 0 0 1 -102.63 108.89014l-1.47.4497-39.76-14.90991a15.11158 15.11158 0 0 1 3.63-29.16993l36.91-4.1001a122.48066 122.48066 0 0 0 41.14-12.1499l15.26-7.63013a122.15871 122.15871 0 0 0 46.92-41.37987z" fill="#e98690"/></g></svg>