<svg height="512" viewBox="0 0 64 64" width="512" xmlns="http://www.w3.org/2000/svg"><g id="flat"><path d="m41 3s6.937 7 11 12c5.928 7.3 1 11 1 17 0 4-2 29-2 29h-17s-3.063-21-2-31c.47-4.42-4.9-7.956-12-15-8.063-8-10-12-10-12z" fill="#ffd782"/><path d="m46.062 17-14-14h-14.031l20.5 20.464a4.985 4.985 0 0 0 -1.469 3.536c0 2.761 2.239 4 5 4s5-1.239 5-4a1.9 1.9 0 0 1 2-2c2.762 0 4-8-3-8z" fill="#f4f4e6"/><path d="m48 36c0 2-1 1-1 4v21h-9v-19c0-.16-.01-.32-.02-.46-.19-2.55-1.98-2.7-1.98-5.54a3 3 0 0 1 3-3 3.029 3.029 0 0 1 .8.11 8.42 8.42 0 0 0 4.4 0 3.029 3.029 0 0 1 .8-.11 3 3 0 0 1 3 3z" fill="#f4f4e6"/><g fill="#cccbac"><path d="m42.144 38.443a6.153 6.153 0 0 1 -2.529-.548l.885-1.795a3.859 3.859 0 0 0 3.111 0l.895 1.79a5.254 5.254 0 0 1 -2.362.553z"/><path d="m43.062 23h-2c0-3.678 3.534-4.9 3.684-4.949l.633 1.9-.317-.951.322.947a3.438 3.438 0 0 0 -2.322 3.053z"/><path d="m38 16h2v2h-2z"/><path d="m41 52h2v2h-2z"/><path d="m43.06 50h-2c0-1.34-1.51-3.59-3.06-5.44v-2.56c0-.16-.01-.32-.02-.46 1.27 1.31 5.08 5.52 5.08 8.46z"/></g></g></svg>