<svg height="512" viewBox="0 0 512 512" width="512" xmlns="http://www.w3.org/2000/svg"><g id="Flat"><path d="m416 233.21v254.79h-248a48 48 0 0 1 -48-48v-104h-56l34.13-140.77a161.2 161.2 0 0 1 317.87 37.98z" fill="#fec9a3"/><path d="m416 233.21v254.79h-72v-254.79a161.315 161.315 0 0 0 -125.15-157.16 161.225 161.225 0 0 1 197.15 157.16z" fill="#fec093"/><path d="m256 112a127.947 127.947 0 0 0 -110.867 63.991l110.867 64.009z" fill="#f35244"/><path d="m414.866 87.991a127.945 127.945 0 0 0 -110.866-63.991v128z" fill="#348fd9"/><path d="m145.133 175.991a128.136 128.136 0 0 0 0 128.018l110.867-64.009z" fill="#ffb531"/><path d="m145.133 304.009a127.947 127.947 0 0 0 110.867 63.991v-128z" fill="#f98500"/><path d="m366.866 175.991-110.866 64.009 110.866 64.009a128.129 128.129 0 0 0 0-128.018z" fill="#60d1e0"/><path d="m256 368a127.945 127.945 0 0 0 110.866-63.991l-110.866-64.009z" fill="#7eb457"/><path d="m194.343 157.657-69.657-69.657h-36.686v-16h40a8 8 0 0 1 5.657 2.343l72 72z" fill="#4d5e78"/><path d="m395.314 40h28.686v-16h-32a8 8 0 0 0 -5.657 2.343l-32 32 11.314 11.314z" fill="#4d5e78"/><path d="m396.422 200.845-48 24 7.156 14.31 46.311-23.155h30.111v-16h-32a7.994 7.994 0 0 0 -3.578.845z" fill="#4d5e78"/><path d="m310.247 323-12.494 10 32 40a8 8 0 0 0 6.247 3h96v-16h-92.155z" fill="#4d5e78"/><path d="m147.884 238.86 8.232-13.72-40-24a8.009 8.009 0 0 0 -4.116-1.14h-40v16h37.784z" fill="#4d5e78"/><path d="m155.056 416h-67.056v16h72a8 8 0 0 0 7.155-4.422l48-96-14.31-7.156z" fill="#4d5e78"/><g fill="#bfbfbd"><path d="m440 24h56v16h-56z"/><path d="m440 56h56v16h-56z"/><path d="m440 88h40v16h-40z"/><path d="m448 200h48v16h-48z"/><path d="m448 232h48v16h-48z"/><path d="m448 264h32v16h-32z"/><path d="m448 360h48v16h-48z"/><path d="m448 392h48v16h-48z"/><path d="m448 424h32v16h-32z"/><path d="m16 72h56v16h-56z"/><path d="m16 104h56v16h-56z"/><path d="m16 136h40v16h-40z"/><path d="m16 200h40v16h-40z"/><path d="m16 232h40v16h-40z"/><path d="m16 416h56v16h-56z"/><path d="m16 448h56v16h-56z"/><path d="m16 480h40v16h-40z"/></g></g></svg>