<svg id="flat" height="512" viewBox="0 0 512 512" width="512" xmlns="http://www.w3.org/2000/svg"><path d="m120 496v-193.167a46.833 46.833 0 0 1 46.833-46.833h178.334a46.833 46.833 0 0 1 46.833 46.833v193.167z" fill="#faa6a6"/><path d="m160 312h16v184h-16z" fill="#e88080"/><path d="m336 312h16v184h-16z" fill="#e88080"/><path d="m440 352h-136v-16h128v-88h16v96a8 8 0 0 1 -8 8z" fill="#e5e5e5"/><circle cx="440" cy="232" fill="#afeaef" r="24"/><path d="m376 408h72v16h-72z" fill="#e5e5e5"/><circle cx="464" cy="416" fill="#afeaef" r="24"/><rect fill="#faa6a6" height="48" rx="24" width="224" x="144" y="112"/><path d="m280 216v40a24 24 0 0 1 -24 24 24 24 0 0 1 -24-24v-40z" fill="#faa6a6"/><path d="m248 256v-40h-16v40a24 24 0 0 0 32 22.629 24.006 24.006 0 0 1 -16-22.629z" fill="#e88080"/><path d="m176 96v71.879a64.121 64.121 0 0 0 64.121 64.121h31.758a64.121 64.121 0 0 0 64.121-64.121v-71.879l-64-40h-48z" fill="#faa6a6"/><path d="m200 167.879v-71.879l48-40h-24l-48 40v71.879a64.121 64.121 0 0 0 64.121 64.121h24a64.121 64.121 0 0 1 -64.121-64.121z" fill="#e88080"/><path d="m235.37 106.243a66.165 66.165 0 0 0 8.262-10.079l12.368-18.552a70.2 70.2 0 0 0 66.6 48 51.63 51.63 0 0 0 13.4-1.782v-27.83l-64-40h-48l-47.723 39.77q-.277 2.945-.277 5.963v23.879h12.607a66.134 66.134 0 0 0 46.763-19.369z" fill="#e88080"/><path d="m188.607 112a66.13 66.13 0 0 0 46.763-19.37 66.068 66.068 0 0 0 8.262-10.079l12.368-18.551a70.2 70.2 0 0 0 66.6 48 51.673 51.673 0 0 0 36.539-15.135l8.861-8.865h-.072a40.109 40.109 0 0 1 -36.967-24.838 64.359 64.359 0 0 0 -23.341-28.285 51.272 51.272 0 0 0 -51.62-2.877 51.272 51.272 0 0 0 -51.62 2.877 64.059 64.059 0 0 0 -28.38 53.244v23.879z" fill="#f7b023"/><path d="m350.817 84.138a51.614 51.614 0 0 1 -12.217 1.474 70.2 70.2 0 0 1 -66.6-48l-12.368 18.552a66.165 66.165 0 0 1 -8.262 10.079 66.134 66.134 0 0 1 -46.763 19.369h-12.607v-23.879a64.078 64.078 0 0 1 2.884-19.046 63.918 63.918 0 0 0 -18.884 45.434v23.879h12.607a66.135 66.135 0 0 0 46.763-19.37 66.109 66.109 0 0 0 8.262-10.078l12.368-18.552a70.2 70.2 0 0 0 66.6 48 51.673 51.673 0 0 0 36.539-15.135l8.861-8.865h-.072a39.1 39.1 0 0 1 -17.111-3.862z" fill="#f99321"/><path d="m208 168h96a7.977 7.977 0 0 0 1.94-.239l30.06-7.515v-16.492l-32.984 8.246h-94.032l-32.984-8.246v16.492l30.06 7.515a7.977 7.977 0 0 0 1.94.239z" fill="#e5e5e5"/><path d="m208 160v63.365a63.791 63.791 0 0 0 32.121 8.635h31.758a63.791 63.791 0 0 0 32.121-8.635v-63.365z" fill="#afeaef"/><path d="m295.879 208h-32.109a32.185 32.185 0 0 1 -31.77-32.316v-15.684h-24v63.365a63.791 63.791 0 0 0 32.121 8.635h31.758a63.791 63.791 0 0 0 32.121-8.635v-15.883a64.57 64.57 0 0 1 -8.121.518z" fill="#77d5d8"/><path d="m216 120h16v16h-16z" fill="#e88080"/><path d="m194.343 365.657-112-112a8 8 0 0 1 -2.343-5.657v-56h16v52.687l109.657 109.656z" fill="#e5e5e5"/><path d="m280 120h16v16h-16z" fill="#e88080"/><path d="m24 40h128v160h-128z" fill="#3b9daf"/><path d="m352 376h40v72h-40z" fill="#066991"/><path d="m108.438 126.656-8.876-13.312 20.438-13.625v-43.719h16v48a8 8 0 0 1 -3.562 6.656z" fill="#e88080"/><path d="m104 80.49a8.49 8.49 0 0 0 -8.49-8.49 39.51 39.51 0 0 0 -39.51 39.51v58.753a8.49 8.49 0 0 0 12.287 7.593l16.86-8.43a34.106 34.106 0 0 0 18.853-30.505z" fill="#ce3521"/><g fill="#066991"><path d="m400 72h16v16h-16z"/><path d="m432 72h56v16h-56z"/><path d="m400 104h80v16h-80z"/><path d="m400 136h56v16h-56z"/><path d="m472 136h16v16h-16z"/></g><path d="m200 166.246-24-6v-16.492l24 6z" fill="#b7b7b7"/><path d="m280 368h16v16h-16z" fill="#e88080"/><path d="m208 368h16v16h-16z" fill="#e88080"/><path d="m260.971 324a16.971 16.971 0 0 1 24 0l4 4 4-4a16.971 16.971 0 0 1 24 0 16.971 16.971 0 0 1 0 24l-28 28-28-28a16.97 16.97 0 0 1 0-24z" fill="#ce3521"/><path d="m336 496h-160v-112a160.567 160.567 0 0 0 132.411 108.551z" fill="#e88080"/><path d="m176 448h64v16h-64z" fill="#e5e5e5"/><rect fill="#3b9daf" height="112" rx="16.133" width="160" x="24" y="376"/><path d="m152 480v-47.572a32.427 32.427 0 0 0 -32.428-32.428h-21.462a10.109 10.109 0 0 1 -10.11-10.11v-5.89h-32v32a24 24 0 0 0 24 24 24 24 0 0 1 24 24v16z" fill="#faa6a6"/><path d="m120 458.246v-2.246a24.11 24.11 0 0 0 -24.078-24 24 24 0 0 1 -23.922-24v-24h-16v32a24.11 24.11 0 0 0 24.078 24 24 24 0 0 1 23.922 24v16h48v-8h-18.246a13.754 13.754 0 0 1 -13.754-13.754z" fill="#e88080"/></svg>