<svg height="512" viewBox="0 0 512 512" width="512" xmlns="http://www.w3.org/2000/svg"><g id="Flat"><path d="m464 496h-416a176.09043 176.09043 0 0 1 6.41992-47.12l9.03-32.5a176.02433 176.02433 0 0 1 105.44022-116.80993c1.84986-.74007 3.71972-1.43007 5.60986-2.10007l8.10986-2.86 12.33008-4.35 13.05-4.61011a23.98662 23.98662 0 0 0 16.01006-22.62989v-15.02h64v15.02a23.98662 23.98662 0 0 0 16.01 22.62988l13.06007 4.61012 12.32007 4.35 8.10986 2.86c1.89014.67 3.76 1.36 5.60986 2.1001a176.02433 176.02433 0 0 1 105.44019 116.8099l9.03 32.5a176.09043 176.09043 0 0 1 6.41995 47.12z" fill="#8acce7"/><path d="m256 456-73.39-161.39 73.39 9.39 73.39-9.39z" fill="#c4d4e0"/><path d="m272 496h-16v-40l16-32z" fill="#2d80b3"/><path d="m289.27 270.73-33.27 33.27-33.27-33.27a23.83271 23.83271 0 0 0 1.27-7.71v-15.02h64v15.02a23.83271 23.83271 0 0 0 1.27 7.71z" fill="#f2c194"/><path d="m280 328-16 24h-16l-16-24 24-24z" fill="#e44b4d"/><path d="m280 328-16 24h-16l-16-24a43.26659 43.26659 0 0 0 48 0z" fill="#d14547"/><path d="m280 392-16-40h-16l-16 40 24 64z" fill="#e44b4d"/><path d="m320 352 16 40-80 64 61.07007-165.74 20.42993 7.21c1.89014.67 3.76 1.36 5.60986 2.1001l8.89014 44.4299z" fill="#379ec3"/><path d="m176 392 16-40-32-8 8.89014-44.42993c1.84986-.74007 3.71972-1.43007 5.60986-2.10007l20.43994-7.21 61.06006 165.74z" fill="#379ec3"/><circle cx="376" cy="456" fill="#d3e1e9" r="24"/><path d="m376 488a32 32 0 1 1 32-32 32.03635 32.03635 0 0 1 -32 32zm0-48a16 16 0 1 0 16 16 16.01833 16.01833 0 0 0 -16-16z" fill="#2f4054"/><path d="m200 256h24v7.02a23.83271 23.83271 0 0 1 -1.27 7.71l1.27 1.27h-24a56.06158 56.06158 0 0 0 -56 56v64.58a56.071 56.071 0 0 1 48 55.42v16a7.9979 7.9979 0 0 1 -8 8h-8v-24a40 40 0 0 0 -80 0v24h-8a7.9979 7.9979 0 0 1 -8-8v-16a56.071 56.071 0 0 1 48-55.42v-64.58a72.08281 72.08281 0 0 1 72-72z" fill="#2d80b3"/><path d="m384 328v128a8 8 0 0 1 -16 0v-128a56.06158 56.06158 0 0 0 -56-56h-24l1.27-1.27a23.83271 23.83271 0 0 1 -1.27-7.71v-7.02h24a72.08281 72.08281 0 0 1 72 72z" fill="#2d80b3"/><circle cx="104" cy="464" fill="#2f4054" r="16"/><circle cx="168" cy="464" fill="#2f4054" r="16"/><path d="m256 304-32 32-41.39014-41.39 12.33008-4.35 13.05-4.61011a24.03343 24.03343 0 0 0 14.74006-14.91989z" fill="#d3e1e9"/><path d="m329.39014 294.61-41.39014 41.39-32-32 33.27-33.27a24.03343 24.03343 0 0 0 14.74 14.91992l13.06007 4.61008z" fill="#d3e1e9"/><path d="m176 72v104.00008a79.99991 79.99991 0 0 0 79.99992 79.99992h.00016a79.99991 79.99991 0 0 0 79.99992-79.99992v-104.00008z" fill="#f4ceaf"/><path d="m172 120h4a0 0 0 0 1 0 0v56a0 0 0 0 1 0 0h-4a28 28 0 0 1 -28-28 28 28 0 0 1 28-28z" fill="#f2c194"/><path d="m364 120h4a0 0 0 0 1 0 0v56a0 0 0 0 1 0 0h-4a28 28 0 0 1 -28-28 28 28 0 0 1 28-28z" fill="#f2c194" transform="matrix(-1 0 0 -1 704 296)"/><path d="m224 144h-16a8 8 0 0 1 0-16h16a8 8 0 0 1 0 16z" fill="#ad7d4d"/><path d="m304 144h-16a8 8 0 0 1 0-16h16a8 8 0 0 1 0 16z" fill="#ad7d4d"/><path d="m248.00586 184.002a8.0064 8.0064 0 0 1 -7.7666-9.94238l8-32a7.99965 7.99965 0 1 1 15.52148 3.88086l-8 32a8.00241 8.00241 0 0 1 -7.75488 6.06152z" fill="#f2c194"/><path d="m256 223.294a51.19307 51.19307 0 0 1 -28.4375-8.6377 7.99982 7.99982 0 0 1 8.875-13.3125 35.17618 35.17618 0 0 0 39.125 0 7.99982 7.99982 0 1 1 8.875 13.3125 51.19307 51.19307 0 0 1 -28.4375 8.6377z" fill="#f2c194"/><circle cx="216" cy="160" fill="#966342" r="8"/><circle cx="296" cy="160" fill="#966342" r="8"/><path d="m336 81.89v38.11a47.99523 47.99523 0 0 1 -38.4-19.2l-9.6-12.8-31.88 21.25a63.96927 63.96927 0 0 1 -35.5 10.75h-28.62a47.99817 47.99817 0 1 1 35.77-80h26.93a35.12791 35.12791 0 0 1 33.3 24l10.53-5.27a25.85228 25.85228 0 0 1 11.58-2.73 25.88832 25.88832 0 0 1 25.89 25.89z" fill="#ad7d4d"/><path d="m256 72a8 8 0 0 1 -16 0 47.51876 47.51876 0 0 0 -12.22-32h19.68a63.40365 63.40365 0 0 1 8.54 32z" fill="#966342"/></g></svg>