<svg id="Flat" height="512" viewBox="0 0 512 512" width="512" xmlns="http://www.w3.org/2000/svg"><ellipse cx="256" cy="224" fill="#67c5e0" rx="232" ry="200"/><path d="m344 38.89v1.11c0 35.61-56 112-88 112-92.78 0-168 51.22-168 144 0 27.51 7.03 55.58 19.22 81.46-50.87-36.68-83.22-91.81-83.22-153.46 0-110.46 103.87-200 232-200a263.8 263.8 0 0 1 88 14.89z" fill="#6ed2f0"/><path d="m424 296c0 92.784-80 192-168 192s-168-99.216-168-192 75.216-144 168-144 168 51.216 168 144z" fill="#f7cca9"/><g fill="#95573a"><path d="m328 304a24.028 24.028 0 0 1 -24-24 8 8 0 0 1 16 0 8 8 0 0 0 16 0 8 8 0 0 1 16 0 24.028 24.028 0 0 1 -24 24z"/><path d="m184 304a24.027 24.027 0 0 1 -24-24 8 8 0 0 1 16 0 8 8 0 0 0 16 0 8 8 0 0 1 16 0 24.027 24.027 0 0 1 -24 24z"/><path d="m256 400c-46.695 0-62.672-35.291-63.329-36.793a8 8 0 0 1 14.642-6.449c.557 1.225 12.82 27.242 48.687 27.242 36.348 0 48.552-26.935 48.671-27.207a8 8 0 0 1 14.658 6.414c-.657 1.502-16.629 36.793-63.329 36.793z"/><path d="m272 336h-32a8 8 0 0 1 -8-8v-32a8 8 0 0 1 16 0v24h24a8 8 0 0 1 0 16z"/></g><circle cx="152" cy="344" fill="#e9eef2" r="16"/><circle cx="360" cy="344" fill="#e9eef2" r="16"/><circle cx="256" cy="440" fill="#e9eef2" r="16"/><path d="m47.587 64.544h80v32h-80z" fill="#757c80" transform="matrix(.614 -.79 .79 .614 -29.754 100.288)"/><path d="m56 32a24 24 0 0 1 24 24v24a0 0 0 0 1 0 0h-48a0 0 0 0 1 0 0v-24a24 24 0 0 1 24-24z" fill="#4f5659" transform="matrix(.614 -.79 .79 .614 -22.58 65.862)"/><path d="m85.5 109.312 94.757 73.628a15.981 15.981 0 0 0 15.839 2.175l14.339 11.141a16 16 0 0 0 19.634-25.268l-14.339-11.141a15.982 15.982 0 0 0 -6.022-14.811l-94.761-73.627z" fill="#c3c6c7"/><path d="m232.88 193.44a16 16 0 0 1 -22.45 2.82l-14.34-11.14a16 16 0 0 1 -15.84-2.18l-56.85-44.18 29.45-37.9 56.85 44.18a15.985 15.985 0 0 1 6.03 14.81l14.33 11.14a16 16 0 0 1 2.82 22.45z" fill="#e9eef2"/><circle cx="256" cy="232" fill="#e9eef2" r="16"/></svg>